<?xml version="1.0" encoding="iso-8859-1"?>
<!-- Generator: Adobe Illustrator 16.0.4, SVG Export Plug-In . SVG Version: 6.00 Build 0)  -->
<!DOCTYPE svg PUBLIC "-//W3C//DTD SVG 1.1//EN" "http://www.w3.org/Graphics/SVG/1.1/DTD/svg11.dtd">
<svg version="1.1" id="jet" xmlns="http://www.w3.org/2000/svg" xmlns:xlink="http://www.w3.org/1999/xlink" x="0px" y="0px"
	 width="145.15px" height="194.697px" viewBox="0 0 145.15 194.697" style="enable-background:new 0 0 145.15 194.697;"
	 xml:space="preserve">
<path id="disk" style="fill:#808080;stroke:#000000;stroke-width:4;stroke-miterlimit:10;" d="M124.555,98.561
	c0,28.708-23.271,51.98-51.979,51.98s-51.98-23.272-51.98-51.98s23.272-51.979,51.98-51.979S124.555,69.853,124.555,98.561z
	 M72.575,75.327c-12.832,0-23.233,10.402-23.233,23.233c0,12.832,10.401,23.233,23.233,23.233c12.831,0,23.233-10.401,23.233-23.233
	C95.809,85.729,85.406,75.327,72.575,75.327z"/>
<circle style="fill:#E21300;stroke:#000000;stroke-miterlimit:10;" cx="72.576" cy="98.561" r="19.656"/>
<g id="claws">
	
		<line style="fill:none;stroke:#000000;stroke-width:3;stroke-miterlimit:10;" x1="98.739" y1="119.302" x2="126.739" y2="140.016"/>
	<line style="fill:none;stroke:#000000;stroke-width:3;stroke-miterlimit:10;" x1="92.052" y1="71.906" x2="120.426" y2="33.552"/>
	<line style="fill:none;stroke:#000000;stroke-width:3;stroke-miterlimit:10;" x1="14.216" y1="56.771" x2="41.079" y2="76.645"/>
	<line style="fill:none;stroke:#000000;stroke-width:3;stroke-miterlimit:10;" x1="24.101" y1="163.756" x2="50.444" y2="128.147"/>
</g>
</svg>
