<?xml version="1.0" encoding="iso-8859-1"?>
<!-- Generator: Adobe Illustrator 16.0.4, SVG Export Plug-In . SVG Version: 6.00 Build 0)  -->
<!DOCTYPE svg PUBLIC "-//W3C//DTD SVG 1.1//EN" "http://www.w3.org/Graphics/SVG/1.1/DTD/svg11.dtd">
<svg version="1.1" id="nut" xmlns="http://www.w3.org/2000/svg" xmlns:xlink="http://www.w3.org/1999/xlink" x="0px" y="0px"
	 width="145.15px" height="194.697px" viewBox="0 0 145.15 194.697" style="enable-background:new 0 0 145.15 194.697;"
	 xml:space="preserve">
<path id="meat" style="fill:#FFFFFF;stroke:#000000;stroke-width:4;stroke-miterlimit:10;" d="M135.137,97.349
	c0,34.552-28.01,62.562-62.562,62.562S10.014,131.9,10.014,97.349s28.01-62.562,62.562-62.562S135.137,62.797,135.137,97.349z
	 M72.575,49.299c-26.537,0-48.049,21.512-48.049,48.049s21.512,48.049,48.049,48.049s48.049-21.512,48.049-48.049
	S99.112,49.299,72.575,49.299z"/>
<g id="hair">
	<g>
		<g>
			<g>
				<path style="fill:none;stroke:#000000;stroke-linecap:round;stroke-miterlimit:10;" d="M111.891,48.685
					c1.153-0.59,1.938,0.245,4.689-2.315"/>
				<path style="fill:none;stroke:#000000;stroke-linecap:round;stroke-miterlimit:10;" d="M117.506,53.818
					c1.793-2.129,1.928-2.245,3.514-2.745"/>
				<path style="fill:none;stroke:#000000;stroke-linecap:round;stroke-miterlimit:10;" d="M122.021,59.02
					c2.114-1.292,3.904,0.582,5.239-2.585"/>
				<path style="fill:none;stroke:#000000;stroke-linecap:round;stroke-miterlimit:10;" d="M126.64,65.85
					c2.33-0.791,3.33-2.956,4.164-3.124"/>
				<path style="fill:none;stroke:#000000;stroke-linecap:round;stroke-miterlimit:10;" d="M124.803,62.897
					c2.001-0.503,2.584-1.753,3.252-1.752"/>
			</g>
		</g>
	</g>
	<g>
		<g>
			<g>
				<path style="fill:none;stroke:#000000;stroke-linecap:round;stroke-miterlimit:10;" d="M130.955,74.862
					c1.294,0.065,1.557,1.182,5.219,0.34"/>
				<path style="fill:none;stroke:#000000;stroke-linecap:round;stroke-miterlimit:10;" d="M133.252,82.116
					c2.617-0.948,2.792-0.98,4.415-0.621"/>
				<path style="fill:none;stroke:#000000;stroke-linecap:round;stroke-miterlimit:10;" d="M134.562,88.878
					c2.477-0.062,3.09,2.456,5.83,0.381"/>
				<path style="fill:none;stroke:#000000;stroke-linecap:round;stroke-miterlimit:10;" d="M135.146,97.103
					c2.413,0.48,4.362-0.895,5.168-0.624"/>
				<path style="fill:none;stroke:#000000;stroke-linecap:round;stroke-miterlimit:10;" d="M135.031,93.627
					c1.984,0.564,3.114-0.227,3.692,0.108"/>
			</g>
		</g>
	</g>
	<g>
		<g>
			<g>
				<path style="fill:none;stroke:#000000;stroke-linecap:round;stroke-miterlimit:10;" d="M134.377,107.064
					c1.088,0.704,0.757,1.802,4.35,2.904"/>
				<path style="fill:none;stroke:#000000;stroke-linecap:round;stroke-miterlimit:10;" d="M132.739,114.495
					c2.74,0.487,2.908,0.547,4.134,1.67"/>
				<path style="fill:none;stroke:#000000;stroke-linecap:round;stroke-miterlimit:10;" d="M130.492,121.006
					c2.176,1.185,1.448,3.672,4.858,3.245"/>
				<path style="fill:none;stroke:#000000;stroke-linecap:round;stroke-miterlimit:10;" d="M126.886,128.421
					c1.85,1.622,4.225,1.406,4.787,2.044"/>
				<path style="fill:none;stroke:#000000;stroke-linecap:round;stroke-miterlimit:10;" d="M128.524,125.354
					c1.437,1.481,2.811,1.361,3.144,1.94"/>
			</g>
		</g>
	</g>
	<g>
		<g>
			<g>
				<path style="fill:none;stroke:#000000;stroke-linecap:round;stroke-miterlimit:10;" d="M121.239,136.664
					c0.59,1.153-0.246,1.938,2.314,4.689"/>
				<path style="fill:none;stroke:#000000;stroke-linecap:round;stroke-miterlimit:10;" d="M116.105,142.28
					c2.13,1.792,2.245,1.928,2.745,3.513"/>
				<path style="fill:none;stroke:#000000;stroke-linecap:round;stroke-miterlimit:10;" d="M110.904,146.795
					c1.292,2.114-0.582,3.905,2.585,5.239"/>
				<path style="fill:none;stroke:#000000;stroke-linecap:round;stroke-miterlimit:10;" d="M104.073,151.413
					c0.791,2.33,2.956,3.331,3.124,4.164"/>
				<path style="fill:none;stroke:#000000;stroke-linecap:round;stroke-miterlimit:10;" d="M107.026,149.576
					c0.503,2.001,1.753,2.584,1.752,3.252"/>
			</g>
		</g>
	</g>
	<g>
		<g>
			<g>
				<path style="fill:none;stroke:#000000;stroke-linecap:round;stroke-miterlimit:10;" d="M95.062,155.729
					c-0.065,1.293-1.182,1.556-0.34,5.218"/>
				<path style="fill:none;stroke:#000000;stroke-linecap:round;stroke-miterlimit:10;" d="M87.808,158.025
					c0.948,2.617,0.98,2.792,0.621,4.415"/>
				<path style="fill:none;stroke:#000000;stroke-linecap:round;stroke-miterlimit:10;" d="M81.046,159.335
					c0.062,2.477-2.456,3.091-0.381,5.83"/>
				<path style="fill:none;stroke:#000000;stroke-linecap:round;stroke-miterlimit:10;" d="M72.821,159.919
					c-0.48,2.413,0.895,4.362,0.623,5.168"/>
				<path style="fill:none;stroke:#000000;stroke-linecap:round;stroke-miterlimit:10;" d="M76.297,159.805
					c-0.564,1.984,0.227,3.114-0.108,3.692"/>
			</g>
		</g>
	</g>
	<g>
		<g>
			<g>
				<path style="fill:none;stroke:#000000;stroke-linecap:round;stroke-miterlimit:10;" d="M62.858,159.15
					c-0.703,1.087-1.801,0.757-2.903,4.35"/>
				<path style="fill:none;stroke:#000000;stroke-linecap:round;stroke-miterlimit:10;" d="M55.429,157.513
					c-0.487,2.74-0.547,2.908-1.67,4.134"/>
				<path style="fill:none;stroke:#000000;stroke-linecap:round;stroke-miterlimit:10;" d="M48.918,155.266
					c-1.186,2.175-3.673,1.448-3.245,4.858"/>
				<path style="fill:none;stroke:#000000;stroke-linecap:round;stroke-miterlimit:10;" d="M41.503,151.659
					c-1.622,1.85-1.406,4.226-2.044,4.787"/>
				<path style="fill:none;stroke:#000000;stroke-linecap:round;stroke-miterlimit:10;" d="M44.57,153.298
					c-1.481,1.437-1.361,2.81-1.94,3.144"/>
			</g>
		</g>
	</g>
	<g>
		<g>
			<g>
				<path style="fill:none;stroke:#000000;stroke-linecap:round;stroke-miterlimit:10;" d="M33.259,146.012
					c-1.152,0.589-1.938-0.245-4.688,2.315"/>
				<path style="fill:none;stroke:#000000;stroke-linecap:round;stroke-miterlimit:10;" d="M27.644,140.879
					c-1.792,2.129-1.928,2.245-3.513,2.745"/>
				<path style="fill:none;stroke:#000000;stroke-linecap:round;stroke-miterlimit:10;" d="M23.129,135.678
					c-2.114,1.291-3.905-0.583-5.239,2.584"/>
				<path style="fill:none;stroke:#000000;stroke-linecap:round;stroke-miterlimit:10;" d="M18.511,128.847
					c-2.33,0.79-3.331,2.956-4.164,3.123"/>
				<path style="fill:none;stroke:#000000;stroke-linecap:round;stroke-miterlimit:10;" d="M20.348,131.8
					c-2.001,0.503-2.584,1.753-3.252,1.752"/>
			</g>
		</g>
	</g>
	<g>
		<g>
			<g>
				<path style="fill:none;stroke:#000000;stroke-linecap:round;stroke-miterlimit:10;" d="M14.194,119.834
					c-1.293-0.065-1.556-1.18-5.218-0.339"/>
				<path style="fill:none;stroke:#000000;stroke-linecap:round;stroke-miterlimit:10;" d="M11.898,112.582
					c-2.617,0.947-2.792,0.98-4.415,0.621"/>
				<path style="fill:none;stroke:#000000;stroke-linecap:round;stroke-miterlimit:10;" d="M10.589,105.82
					c-2.477,0.061-3.091-2.457-5.829-0.382"/>
				<path style="fill:none;stroke:#000000;stroke-linecap:round;stroke-miterlimit:10;" d="M10.005,97.595
					c-2.413-0.481-4.363,0.895-5.168,0.623"/>
				<path style="fill:none;stroke:#000000;stroke-linecap:round;stroke-miterlimit:10;" d="M10.119,101.07
					c-1.984-0.564-3.114,0.226-3.692-0.108"/>
			</g>
		</g>
	</g>
	<g>
		<g>
			<g>
				<path style="fill:none;stroke:#000000;stroke-linecap:round;stroke-miterlimit:10;" d="M10.773,87.631
					c-1.087-0.704-0.758-1.8-4.35-2.903"/>
				<path style="fill:none;stroke:#000000;stroke-linecap:round;stroke-miterlimit:10;" d="M12.411,80.202
					c-2.74-0.488-2.908-0.547-4.134-1.67"/>
				<path style="fill:none;stroke:#000000;stroke-linecap:round;stroke-miterlimit:10;" d="M14.658,73.692
					c-2.176-1.186-1.448-3.673-4.857-3.246"/>
				<path style="fill:none;stroke:#000000;stroke-linecap:round;stroke-miterlimit:10;" d="M18.265,66.276
					c-1.85-1.623-4.226-1.407-4.787-2.045"/>
				<path style="fill:none;stroke:#000000;stroke-linecap:round;stroke-miterlimit:10;" d="M16.626,69.344
					c-1.437-1.481-2.811-1.362-3.144-1.94"/>
			</g>
		</g>
	</g>
	<g>
		<g>
			<g>
				<path style="fill:none;stroke:#000000;stroke-linecap:round;stroke-miterlimit:10;" d="M23.912,58.032
					c-0.59-1.153,0.244-1.938-2.315-4.688"/>
				<path style="fill:none;stroke:#000000;stroke-linecap:round;stroke-miterlimit:10;" d="M29.045,52.417
					c-2.129-1.793-2.245-1.929-2.745-3.513"/>
				<path style="fill:none;stroke:#000000;stroke-linecap:round;stroke-miterlimit:10;" d="M34.246,47.903
					c-1.292-2.115,0.582-3.906-2.584-5.24"/>
				<path style="fill:none;stroke:#000000;stroke-linecap:round;stroke-miterlimit:10;" d="M41.077,43.284
					c-0.79-2.331-2.956-3.331-3.123-4.165"/>
				<path style="fill:none;stroke:#000000;stroke-linecap:round;stroke-miterlimit:10;" d="M38.124,45.121
					c-0.503-2.001-1.753-2.585-1.752-3.252"/>
			</g>
		</g>
	</g>
	<g>
		<g>
			<g>
				<path style="fill:none;stroke:#000000;stroke-linecap:round;stroke-miterlimit:10;" d="M50.09,38.968
					c0.065-1.293,1.181-1.556,0.339-5.218"/>
				<path style="fill:none;stroke:#000000;stroke-linecap:round;stroke-miterlimit:10;" d="M57.343,36.672
					c-0.947-2.617-0.98-2.793-0.621-4.415"/>
				<path style="fill:none;stroke:#000000;stroke-linecap:round;stroke-miterlimit:10;" d="M64.104,35.363
					c-0.062-2.478,2.457-3.091,0.382-5.83"/>
				<path style="fill:none;stroke:#000000;stroke-linecap:round;stroke-miterlimit:10;" d="M72.329,34.778
					c0.481-2.413-0.895-4.363-0.622-5.168"/>
				<path style="fill:none;stroke:#000000;stroke-linecap:round;stroke-miterlimit:10;" d="M68.854,34.893
					c0.564-1.984-0.226-3.115,0.108-3.692"/>
			</g>
		</g>
	</g>
	<g>
		<g>
			<g>
				<path style="fill:none;stroke:#000000;stroke-linecap:round;stroke-miterlimit:10;" d="M82.293,35.547
					c0.703-1.087,1.801-0.757,2.902-4.35"/>
				<path style="fill:none;stroke:#000000;stroke-linecap:round;stroke-miterlimit:10;" d="M89.722,37.185
					c0.488-2.74,0.548-2.909,1.67-4.134"/>
				<path style="fill:none;stroke:#000000;stroke-linecap:round;stroke-miterlimit:10;" d="M96.232,39.432
					c1.186-2.176,3.674-1.449,3.245-4.858"/>
				<path style="fill:none;stroke:#000000;stroke-linecap:round;stroke-miterlimit:10;" d="M103.647,43.038
					c1.623-1.849,1.406-4.226,2.045-4.787"/>
				<path style="fill:none;stroke:#000000;stroke-linecap:round;stroke-miterlimit:10;" d="M100.58,41.399
					c1.481-1.436,1.362-2.81,1.94-3.143"/>
			</g>
		</g>
	</g>
	<g>
		<g>
			<g>
				<path style="fill:none;stroke:#000000;stroke-linecap:round;stroke-miterlimit:10;" d="M111.892,48.686
					c1.153-0.59,1.938,0.245,4.688-2.316"/>
				<path style="fill:none;stroke:#000000;stroke-linecap:round;stroke-miterlimit:10;" d="M117.507,53.818
					c1.793-2.129,1.929-2.245,3.513-2.745"/>
				<path style="fill:none;stroke:#000000;stroke-linecap:round;stroke-miterlimit:10;" d="M122.021,59.021
					c2.114-1.292,3.906,0.582,5.239-2.585"/>
				<path style="fill:none;stroke:#000000;stroke-linecap:round;stroke-miterlimit:10;" d="M126.64,65.851
					c2.33-0.79,3.331-2.956,4.164-3.123"/>
				<path style="fill:none;stroke:#000000;stroke-linecap:round;stroke-miterlimit:10;" d="M124.803,62.897
					c2.001-0.503,2.585-1.751,3.252-1.751"/>
			</g>
		</g>
	</g>
</g>
</svg>
